<svg aria-label="logo" xmlns="http://www.w3.org/2000/svg" viewBox="0 0 64 64"><rect width="50" height="50" x="5" y="5" fill="#fbc02d"/><path d="m13,13v29h5v5h3.72266l6.00098-5h19.27637V13H13Zm26.5,17c-1.37891,0-2.5-1.12158-2.5-2.5s1.12109-2.5,2.5-2.5,2.5,1.12158,2.5,2.5-1.12109,2.5-2.5,2.5Zm-7-2.5c0,1.37842-1.12109,2.5-2.5,2.5s-2.5-1.12158-2.5-2.5,1.12109-2.5,2.5-2.5,2.5,1.12158,2.5,2.5Zm-12-2.5c1.37891,0,2.5,1.12158,2.5,2.5s-1.12109,2.5-2.5,2.5-2.5-1.12158-2.5-2.5,1.12109-2.5,2.5-2.5Z"/><path d="m56.5,8.52979V3.5H3.5v53h5v4h52V8.60986l-4-.08008ZM6.5,53.5V6.5h47v47H6.5Z"/></svg>